<svg viewBox="0 0 200 200" xmlns="http://www.w3.org/2000/svg">
  <!-- Track outline - Figure 8 -->
  <path d="M 100 30 Q 150 50 160 100 Q 140 130 100 140 Q 60 130 40 100 Q 50 50 100 30" fill="none" stroke="#444" stroke-width="2"/>
  <path d="M 100 140 Q 120 160 100 180 Q 80 160 100 140" fill="none" stroke="#444" stroke-width="2"/>

  <!-- Sector 1 (Rojo) -->
  <path d="M 100 30 Q 150 50 160 100" fill="none" stroke="#FF0000" stroke-width="4" opacity="0.8"/>
  <text x="140" y="55" font-size="12" fill="#FF0000">S1</text>

  <!-- Sector 2 (Amarillo) -->
  <path d="M 160 100 Q 140 130 100 140 Q 120 160 100 180" fill="none" stroke="#FFD700" stroke-width="4" opacity="0.8"/>
  <text x="120" y="130" font-size="12" fill="#FFD700">S2</text>

  <!-- Sector 3 (Verde) -->
  <path d="M 100 180 Q 80 160 100 140 Q 60 130 40 100 Q 50 50 100 30" fill="none" stroke="#00FF00" stroke-width="4" opacity="0.8"/>
  <text x="65" y="90" font-size="12" fill="#00FF00">S3</text>

  <!-- Start/Finish -->
  <circle cx="100" cy="30" r="3" fill="white"/>
  <text x="95" y="20" font-size="10" fill="white" font-weight="bold">S/F</text>
</svg>